<svg width="16" height="16" viewBox="0 0 16 16" fill="none" xmlns="http://www.w3.org/2000/svg">
<path fill-rule="evenodd" clip-rule="evenodd" d="M12.8983 5.23117C12.8202 4.98561 12.7005 4.75528 12.5445 4.55021L13.3656 3.72543C13.4988 3.5916 13.4986 3.37517 13.3651 3.24163V3.24163C13.2315 3.1081 13.0151 3.10786 12.8813 3.2411L12.0565 4.06224C11.8514 3.90602 11.6211 3.78608 11.3755 3.70764C10.8269 3.52533 10.2311 3.54621 9.69665 3.76647C9.40554 3.88688 9.14127 4.06395 8.91919 4.28739L7.70711 5.50418L11.1017 8.89958L12.3193 7.6875C12.5445 7.46234 12.7178 7.20267 12.8394 6.90926C13.0596 6.37477 13.0805 5.77976 12.8983 5.23117ZM12.2008 6.64644C12.1156 6.8535 11.99 7.04152 11.8313 7.19953L11.1017 7.92913L8.67756 5.50497L9.40716 4.77537C9.56487 4.61651 9.75262 4.49063 9.95946 4.40507C10.1691 4.31577 10.3947 4.2702 10.6226 4.27115C10.8504 4.27209 11.0756 4.31953 11.2845 4.41056C11.4916 4.5 11.6721 4.62317 11.8258 4.78086C11.9827 4.93384 12.1067 5.11506 12.1961 5.32217C12.287 5.53093 12.3344 5.75604 12.3354 5.98374C12.3363 6.21144 12.29 6.43694 12.2008 6.64644ZM8.41632 10.5643L9.3486 9.59372C9.47762 9.45939 9.476 9.24669 9.34494 9.11435V9.11435C9.20917 8.97726 8.98712 8.97894 8.85345 9.11808L7.92835 10.0811L6.46914 8.62264L7.40462 7.64889C7.53453 7.51367 7.53177 7.29919 7.39843 7.16735V7.16735C7.26232 7.03277 7.04238 7.03564 6.90982 7.17374L5.98745 8.13467L5.50418 7.65219L4.28739 8.86428C4.06313 9.08763 3.88623 9.35392 3.76726 9.64723C3.64606 9.93776 3.58393 10.2495 3.58447 10.5643C3.58447 10.8248 3.62369 11.079 3.70214 11.3253C3.78452 11.5685 3.90455 11.7937 4.06224 12.0016L3.24075 12.8267C3.1077 12.9603 3.10794 13.1765 3.24128 13.3098V13.3098C3.37459 13.4431 3.59064 13.4434 3.7243 13.3104L4.54942 12.4895C4.75732 12.6464 4.98248 12.7665 5.22568 12.8488C5.47202 12.9273 5.7262 12.9665 5.98666 12.9665C6.30518 12.9665 6.61114 12.9061 6.90455 12.7845C7.2011 12.6629 7.46156 12.4895 7.6875 12.2644L8.89958 11.0468L8.41632 10.5643ZM6.64174 12.1514C6.43431 12.2372 6.21191 12.2809 5.98745 12.2801C5.75131 12.2801 5.52772 12.2354 5.31668 12.1467C5.11336 12.0597 4.92795 11.9358 4.76987 11.7811C4.61554 11.6229 4.49185 11.4375 4.40507 11.2343C4.31574 11.0223 4.27037 10.7944 4.2717 10.5643C4.27083 10.339 4.31493 10.1157 4.40141 9.90754C4.4879 9.69942 4.61503 9.51064 4.77537 9.35225L5.50497 8.62264L7.92913 11.0468L7.19953 11.7764C7.03971 11.9364 6.85025 12.0638 6.64174 12.1514Z" fill="#6E6E6E"/>
</svg>
