<svg width="16" height="16" viewBox="0 0 16 16" fill="none" xmlns="http://www.w3.org/2000/svg">
<path fill-rule="evenodd" clip-rule="evenodd" d="M10.8225 4.04614C11.1349 3.73372 11.6414 3.73372 11.9538 4.04614C12.2663 4.35856 12.2663 4.86509 11.9538 5.17751L9.13138 7.99998L11.9539 10.8225C12.2663 11.1349 12.2663 11.6414 11.9539 11.9538C11.6414 12.2663 11.1349 12.2663 10.8225 11.9538L8.00001 9.13136L5.17753 11.9538C4.86511 12.2663 4.35858 12.2663 4.04616 11.9538C3.73374 11.6414 3.73374 11.1349 4.04616 10.8225L6.86864 7.99999L4.04616 5.17751C3.73375 4.86509 3.73375 4.35856 4.04616 4.04614C4.35858 3.73372 4.86512 3.73372 5.17754 4.04614L8.00001 6.86861L10.8225 4.04614Z" fill="#DB5860"/>
</svg>
