<svg width="16" height="16" viewBox="0 0 16 16" fill="none" xmlns="http://www.w3.org/2000/svg">
<mask id="path-1-outside-1_1434_179" maskUnits="userSpaceOnUse" x="3.20786" y="3.20377" width="10" height="10" fill="black">
<rect fill="white" x="3.20786" y="3.20377" width="10" height="10"/>
<path fill-rule="evenodd" clip-rule="evenodd" d="M10.6005 4.12265C10.9491 3.76829 11.5189 3.76358 11.8733 4.11213C12.2276 4.46069 12.2323 5.03052 11.8838 5.38488L9.26241 8.04995L11.8838 10.715C12.2323 11.0694 12.2276 11.6392 11.8733 11.9878C11.5189 12.3363 10.9491 12.3316 10.6005 11.9772L8 9.33339L5.39949 11.9772C5.05093 12.3316 4.4811 12.3363 4.12674 11.9878C3.77238 11.6392 3.76767 11.0694 4.11622 10.715L6.7376 8.04995L4.11623 5.38488C3.76767 5.03052 3.77238 4.46069 4.12674 4.11213C4.48111 3.76358 5.05094 3.76829 5.39949 4.12265L8 6.7665L10.6005 4.12265Z"/>
</mask>
<path fill-rule="evenodd" clip-rule="evenodd" d="M10.6005 4.12265C10.9491 3.76829 11.5189 3.76358 11.8733 4.11213C12.2276 4.46069 12.2323 5.03052 11.8838 5.38488L9.26241 8.04995L11.8838 10.715C12.2323 11.0694 12.2276 11.6392 11.8733 11.9878C11.5189 12.3363 10.9491 12.3316 10.6005 11.9772L8 9.33339L5.39949 11.9772C5.05093 12.3316 4.4811 12.3363 4.12674 11.9878C3.77238 11.6392 3.76767 11.0694 4.11622 10.715L6.7376 8.04995L4.11623 5.38488C3.76767 5.03052 3.77238 4.46069 4.12674 4.11213C4.48111 3.76358 5.05094 3.76829 5.39949 4.12265L8 6.7665L10.6005 4.12265Z" fill="#BF0000"/>
<path d="M11.8733 4.11213L11.6629 4.32601L11.6629 4.32601L11.8733 4.11213ZM10.6005 4.12265L10.8144 4.33302L10.8144 4.33302L10.6005 4.12265ZM11.8838 5.38488L12.0977 5.59525L12.0977 5.59525L11.8838 5.38488ZM9.26241 8.04995L9.04853 7.83957C8.9337 7.95632 8.9337 8.14357 9.04853 8.26032L9.26241 8.04995ZM11.8838 10.715L11.6699 10.9254L11.6699 10.9254L11.8838 10.715ZM11.8733 11.9878L11.6629 11.7739L11.6629 11.7739L11.8733 11.9878ZM10.6005 11.9772L10.8144 11.7669L10.8144 11.7669L10.6005 11.9772ZM8 9.33339L8.21388 9.12302C8.15748 9.06568 8.08043 9.03339 8 9.03339C7.91958 9.03339 7.84252 9.06568 7.78613 9.12302L8 9.33339ZM5.39949 11.9772L5.18561 11.7669L5.18561 11.7669L5.39949 11.9772ZM4.11622 10.715L3.90234 10.5046L3.90234 10.5046L4.11622 10.715ZM6.7376 8.04995L6.95148 8.26032C7.06631 8.14357 7.06631 7.95632 6.95148 7.83957L6.7376 8.04995ZM4.11623 5.38488L4.3301 5.17451L4.3301 5.17451L4.11623 5.38488ZM4.12674 4.11213L4.33712 4.32601L4.33712 4.32601L4.12674 4.11213ZM5.39949 4.12265L5.18562 4.33302L5.18562 4.33302L5.39949 4.12265ZM8 6.7665L7.78613 6.97687C7.84252 7.03421 7.91958 7.0665 8 7.0665C8.08043 7.0665 8.15748 7.03421 8.21388 6.97687L8 6.7665ZM12.0836 3.89825C11.6111 3.43351 10.8514 3.43979 10.3866 3.91228L10.8144 4.33302C11.0468 4.09678 11.4266 4.09364 11.6629 4.32601L12.0836 3.89825ZM12.0977 5.59525C12.5624 5.12277 12.5561 4.36299 12.0836 3.89825L11.6629 4.32601C11.8991 4.55838 11.9023 4.93827 11.6699 5.17451L12.0977 5.59525ZM9.47628 8.26032L12.0977 5.59525L11.6699 5.17451L9.04853 7.83957L9.47628 8.26032ZM9.04853 8.26032L11.6699 10.9254L12.0977 10.5046L9.47628 7.83957L9.04853 8.26032ZM11.6699 10.9254C11.9023 11.1616 11.8991 11.5415 11.6629 11.7739L12.0836 12.2016C12.5561 11.7369 12.5624 10.9771 12.0977 10.5046L11.6699 10.9254ZM11.6629 11.7739C11.4267 12.0063 11.0468 12.0031 10.8144 11.7669L10.3866 12.1876C10.8514 12.6601 11.6112 12.6664 12.0836 12.2016L11.6629 11.7739ZM10.8144 11.7669L8.21388 9.12302L7.78613 9.54376L10.3866 12.1876L10.8144 11.7669ZM5.61337 12.1876L8.21388 9.54376L7.78613 9.12302L5.18561 11.7669L5.61337 12.1876ZM3.91637 12.2016C4.38885 12.6664 5.14863 12.6601 5.61337 12.1876L5.18561 11.7669C4.95324 12.0031 4.57336 12.0063 4.33711 11.7739L3.91637 12.2016ZM3.90234 10.5046C3.4376 10.9771 3.44388 11.7369 3.91637 12.2016L4.33711 11.7739C4.10087 11.5415 4.09773 11.1616 4.3301 10.9254L3.90234 10.5046ZM6.52372 7.83957L3.90234 10.5046L4.3301 10.9254L6.95148 8.26032L6.52372 7.83957ZM6.95148 7.83957L4.3301 5.17451L3.90235 5.59525L6.52372 8.26032L6.95148 7.83957ZM4.3301 5.17451C4.09773 4.93827 4.10087 4.55838 4.33712 4.32601L3.91637 3.89825C3.44389 4.36299 3.43761 5.12277 3.90235 5.59525L4.3301 5.17451ZM4.33712 4.32601C4.57336 4.09364 4.95325 4.09678 5.18562 4.33302L5.61337 3.91228C5.14863 3.43979 4.38886 3.43351 3.91637 3.89825L4.33712 4.32601ZM5.18562 4.33302L7.78613 6.97687L8.21388 6.55613L5.61337 3.91228L5.18562 4.33302ZM10.3866 3.91228L7.78613 6.55613L8.21388 6.97687L10.8144 4.33302L10.3866 3.91228Z" fill="black" fill-opacity="0.71" mask="url(#path-1-outside-1_1434_179)"/>
</svg>
