<svg width="16" height="16" viewBox="0 0 16 16" fill="none" xmlns="http://www.w3.org/2000/svg">
<path fill-rule="evenodd"
      clip-rule="evenodd"
      d="M8 14C11.3137 14 14 11.3137 14 8C14 4.68629 11.3137 2 8 2C4.68629 2 2 4.68629 2 8C2 11.3137 4.68629 14 8 14ZM11.3536 6.35355C11.5488 6.15829 11.5488 5.84171 11.3536 5.64645C11.1583 5.45118 10.8417 5.45118 10.6464 5.64645L7 9.29289L5.35355 7.64645C5.15829 7.45118 4.84171 7.45118 4.64645 7.64645C4.45118 7.84171 4.45118 8.15829 4.64645 8.35355L6.64645 10.3536C6.84171 10.5488 7.15829 10.5488 7.35355 10.3536L11.3536 6.35355Z" fill="#46B372"/>
</svg>
