<svg width="16" height="16" viewBox="0 0 16 16" fill="none" xmlns="http://www.w3.org/2000/svg">
<circle cx="8" cy="8" r="6" fill="#F1462E"/>
<path fill-rule="evenodd" clip-rule="evenodd" d="M9.61107 5.6111C9.82586 5.39632 10.1741 5.39632 10.3889 5.6111C10.6037 5.82589 10.6037 6.17413 10.3889 6.38892L8.7778 8.00001L10.3889 9.6111C10.6037 9.82589 10.6037 10.1741 10.3889 10.3889C10.1741 10.6037 9.82586 10.6037 9.61107 10.3889L7.99998 8.77783L6.38889 10.3889C6.1741 10.6037 5.82586 10.6037 5.61107 10.3889C5.39628 10.1741 5.39628 9.82589 5.61107 9.6111L7.22216 8.00001L5.61107 6.38892C5.39628 6.17413 5.39628 5.82589 5.61107 5.6111C5.82586 5.39632 6.1741 5.39632 6.38889 5.6111L7.99998 7.22219L9.61107 5.6111Z" fill="white" fill-opacity="0.94"/>
</svg>
