<svg width="16" height="16" viewBox="0 0 16 16" fill="none" xmlns="http://www.w3.org/2000/svg">
<path d="M12.2688 6.6314L5.39563 2.22212C5.15346 2.07656 4.87946 2 4.60065 2C4.32184 2 4.04784 2.07656 3.80567 2.22212C3.56881 2.35285 3.3693 2.54774 3.22769 2.78671C3.08608 3.02568 3.00748 3.3001 3 3.58171V12.3928C2.99982 12.6821 3.0748 12.9659 3.21682 13.2135C3.35884 13.4611 3.56248 13.663 3.80567 13.7974C4.05111 13.9376 4.32728 14.0073 4.60638 13.9994C4.88549 13.9915 5.1577 13.9063 5.39563 13.7523L12.2688 9.35058C12.4918 9.20983 12.6763 9.0106 12.8045 8.77232C12.9326 8.53405 13 8.26486 13 7.99099C13 7.71712 12.9326 7.44793 12.8045 7.20965C12.6763 6.97138 12.4918 6.77215 12.2688 6.6314Z" fill="#56B738"/>
</svg>
